<?xml version="1.0" encoding="utf-8"?>
<!-- Generator: Adobe Illustrator 22.1.0, SVG Export Plug-In . SVG Version: 6.00 Build 0)  -->
<svg version="1.1" id="Layer_1" xmlns="http://www.w3.org/2000/svg" xmlns:xlink="http://www.w3.org/1999/xlink" x="0px" y="0px"
	 viewBox="0 0 200 51.1" style="enable-background:new 0 0 200 51.1;" xml:space="preserve">
<style type="text/css">
	.st0{fill:#F5A800;}
</style>
<g>
	<path class="st0" d="M29,8.8c-3.4,0-6.4,2.2-7.8,4.1c-0.2,0.2-0.5,0.2-0.7,0c-1.1-2-4-4.1-7.8-4.1C4.4,8.8,0,13.7,0,21.3v9.2
		c0,3.3,1.9,5.3,5.9,5.3h2.8c0.2,0,0.4-0.2,0.4-0.4V20.7c0-3.2,1-4.5,3.5-4.5c2.4,0,3.6,1.3,3.6,4.4v9.9c0,4.1,2,5.3,5.6,5.3h2.8
		c0.2,0,0.4-0.2,0.4-0.4V20.7c0-2.6,0.9-4.5,3.4-4.5c2.6,0,3.8,1.2,3.8,4.6v9.7c0,3.2,1.1,5.3,5.9,5.3h2.8c0.2,0,0.4-0.2,0.4-0.4
		V21.5C41.2,13.3,36.7,8.8,29,8.8z"/>
	<path class="st0" d="M55.1,25.9h3.4c8.9,0,12.8-1.4,12.8-6.6c0-6.7-5.3-10.6-12.2-10.6c-8.1,0-13.5,6.5-13.5,14.5
		c0,7.3,4.8,13.4,13.8,13.4c7.5,0,10.2-3,10.2-6.4v-1.4c0-0.3-0.3-0.5-0.6-0.4c-1.6,0.8-4.4,1.3-8.1,1.3c-3.5,0-5.6-1.1-6.3-3.4
		C54.6,26.2,54.8,25.9,55.1,25.9z M54.4,19.6c0.4-2.3,1.7-4.1,4.7-4.1c2.6,0,3.8,1.4,3.8,2.8c0,1.1-0.8,1.8-5.1,1.8h-3.1
		C54.6,20.1,54.4,19.9,54.4,19.6z"/>
	<path class="st0" d="M97.4,0.5h-2.8c-0.2,0-0.4,0.2-0.4,0.4V11c0,0.4-0.5,0.5-0.7,0.3c-1.2-1.5-3.4-2.4-6.1-2.4
		c-7,0-12.4,5.5-12.4,14.3c0,7.1,6,13.5,13.7,13.5c10.5,0,14.3-5,14.3-14.5V6.8C103,2.4,101,0.5,97.4,0.5z M89.7,29.6
		c-3.3,0-5.7-2.1-5.7-7.3c0-4,2.1-6.5,4.5-6.5c3.2,0,5.5,1.6,5.5,7.5C94,27.4,92.5,29.6,89.7,29.6z"/>
	<path class="st0" d="M117.2,36.2c2.9,0,5.9-1,5.9-4.2v-2.8c0-0.2-0.2-0.4-0.4-0.4h-1.6c-2.5,0-3.8-0.7-3.8-3.1V6.7
		c0-4.4-1.9-6.3-5.9-6.3h-2.8c-0.2,0-0.4,0.2-0.4,0.4v26.2C108.2,33.3,112.4,36.2,117.2,36.2z"/>
	<path class="st0" d="M148.7,28.5c-1.6,0.8-4.4,1.3-8.1,1.3c-3.5,0-5.6-1.1-6.3-3.4c-0.1-0.3,0.1-0.5,0.4-0.5h3.4
		c8.9,0,12.8-1.4,12.8-6.6c0-6.7-5.3-10.6-12.2-10.6c-8.1,0-13.5,6.5-13.5,14.5c0,7.3,4.8,13.4,13.8,13.4c7.5,0,10.2-3,10.2-6.4
		v-1.4C149.2,28.5,148.9,28.3,148.7,28.5z M134,19.6c0.4-2.3,1.7-4.1,4.7-4.1c2.6,0,3.8,1.4,3.8,2.8c0,1.1-0.8,1.8-5.1,1.8h-3.1
		C134.1,20.1,133.9,19.9,134,19.6z"/>
	<path class="st0" d="M178.4,24.3v-4.1c0-7.7-4.7-11.4-12-11.4c-7.5,0-10.9,3.2-10.9,6.5v2.3c0,0.3,0.4,0.5,0.6,0.3
		c1.7-1.4,3.8-2.3,8.2-2.3c3.6,0,5.3,0.5,5.3,2.7V19c0,0.2-0.2,0.4-0.4,0.4h-0.9c-9.6,0-13.8,3-13.8,8.8c0,6,6.2,8.4,11.2,8.4
		C175.3,36.5,178.4,33.8,178.4,24.3z M163.1,27.6c0-1.8,1.4-2.6,4.8-2.6h1.4c0.2,0,0.4,0.2,0.4,0.4V27c0,2.4-1.4,3.2-3.1,3.2
		C164.2,30.2,163.1,29.3,163.1,27.6z"/>
	<path class="st0" d="M193.9,0c-5,0-10.6,2.6-10.6,12.1v18.1c0,4,1.8,5.6,6.1,5.6h2.4c0.2,0,0.4-0.2,0.4-0.4V18.9
		c0-0.2,0.2-0.4,0.4-0.4h1.7c2.3,0,3.9-1.1,3.9-2.9v-2.9c0-0.2-0.2-0.4-0.4-0.4h-5.2c-0.2,0-0.4-0.2-0.4-0.4V9.2
		c0-1.6,1.5-2.8,3.6-2.8c1,0,2.7,0.1,3.8,0.5c0.3,0.1,0.5-0.1,0.5-0.4V5C200,2.2,198.3,0,193.9,0z"/>
	<polygon class="st0" points="108,44.9 110.3,44.9 110.3,51 112.4,51 112.4,44.9 114.7,44.9 114.7,43 108,43 	"/>
	<polygon class="st0" points="121,46 117.9,46 117.9,43 115.8,43 115.8,51 117.9,51 117.9,47.9 121,47.9 121,51 123.1,51 123.1,43 
		121,43 	"/>
	<polygon class="st0" points="126.9,47.9 130.4,47.9 130.4,46.1 126.9,46.1 126.9,44.9 130.8,44.9 130.8,43 124.7,43 124.7,51 
		130.9,51 130.9,49.2 126.9,49.2 	"/>
	<path class="st0" d="M139,45.9c0-1.7-1.3-2.9-3.1-2.9h-3.8v8h2.1v-2.2h1.3l1.6,2.2h2.6l-2-2.7C138.5,47.8,139,46.9,139,45.9z
		 M134.3,44.9h1.5c0.6,0,1,0.4,1,1.1c0,0.6-0.4,1.1-1,1.1h-1.5V44.9z"/>
	<path class="st0" d="M143.3,43l-3.1,8h2.3l0.5-1.4h3.1l0.5,1.4h2.3l-3.2-8H143.3z M145.4,47.9h-1.8l0.9-2.5L145.4,47.9z"/>
	<path class="st0" d="M153.5,43h-3.8v8h2.1v-2.2h1.7c1.8,0,3.1-1.2,3.1-2.9C156.6,44.3,155.3,43,153.5,43z M151.9,44.9h1.5
		c0.6,0,1,0.4,1,1.1c0,0.6-0.4,1.1-1,1.1h-1.5V44.9z"/>
	<polygon class="st0" points="159.9,47.9 163.4,47.9 163.4,46.1 159.9,46.1 159.9,44.9 163.9,44.9 163.9,43 157.8,43 157.8,51 
		163.9,51 163.9,49.2 159.9,49.2 	"/>
	<path class="st0" d="M170.1,48c0,1.1-0.9,1.2-1.4,1.2c-0.5,0-1.4-0.2-1.4-1.2v-5h-2.1v5.1c0,1.9,1.3,3,3.5,3c1.7,0,3.5-0.8,3.5-3
		V43h-2.1V48z"/>
	<polygon class="st0" points="173.3,44.9 175.5,44.9 175.5,51 177.7,51 177.7,44.9 179.9,44.9 179.9,43 173.3,43 	"/>
	<rect x="181" y="43" class="st0" width="2.1" height="8"/>
	<path class="st0" d="M191.3,48.7c-0.6,0.4-1.3,0.6-2.2,0.6c-1.5,0-2.5-0.9-2.5-2.2c0-2,2.1-2.1,2.7-2.1c0.7,0,1.4,0.2,2,0.4
		l0.2,0.1l0.1-1.9l-0.1,0c-0.8-0.3-1.6-0.5-2.5-0.5c-2.2,0-4.6,1.3-4.6,4.1c0,2.4,1.8,4.1,4.4,4.1c1,0,1.9-0.2,2.9-0.7l0.1,0
		l-0.3-1.9L191.3,48.7z"/>
	<path class="st0" d="M196.7,46.3l-1.1-0.3c-0.5-0.1-0.8-0.2-0.8-0.6c0-0.4,0.4-0.6,1.1-0.6c0.9,0,2,0.3,2.3,0.5l0.2,0.1l0.2-1.9
		l-0.1,0c-0.7-0.4-1.6-0.6-2.7-0.6c-1.9,0-3.2,1-3.2,2.5c0,1.4,1.1,2,2.2,2.3l1.2,0.3c0.6,0.2,0.7,0.3,0.7,0.6
		c0,0.5-0.6,0.6-1.2,0.6c-1.1,0-2.4-0.4-2.5-0.6l-0.2-0.2l-0.2,2l0.1,0c0.5,0.3,1.8,0.6,3,0.6c1.9,0,3.2-1,3.2-2.5
		C199,47.4,198.3,46.7,196.7,46.3z"/>
</g>
</svg>
